<?xml version="1.0" standalone="no"?>
<!DOCTYPE svg PUBLIC "-//W3C//DTD SVG 20010904//EN"
 "http://www.w3.org/TR/2001/REC-SVG-20010904/DTD/svg10.dtd">
<svg version="1.0" xmlns="http://www.w3.org/2000/svg"
 width="694.000000pt" height="694.000000pt" viewBox="0 0 694.000000 694.000000"
 preserveAspectRatio="xMidYMid meet">
<metadata>
Created by potrace 1.11, written by Peter Selinger 2001-2013
</metadata>
<g transform="translate(0.000000,694.000000) scale(0.100000,-0.100000)"
fill="#000000" stroke="none">
<path d="M3080 6793 c-30 -2 -61 -9 -68 -16 -8 -6 -60 -14 -116 -17 -71 -5
-111 -12 -127 -23 -15 -11 -44 -17 -84 -17 -44 0 -67 -6 -85 -20 -14 -11 -41
-20 -60 -20 -49 0 -80 -10 -80 -25 0 -8 -20 -14 -52 -17 -31 -3 -56 -12 -63
-22 -7 -10 -26 -16 -48 -16 -22 0 -39 -6 -45 -16 -5 -8 -28 -20 -53 -25 -24
-6 -48 -17 -52 -25 -4 -8 -19 -14 -32 -14 -14 0 -34 -9 -45 -20 -11 -11 -29
-20 -40 -20 -11 0 -29 -9 -40 -20 -11 -11 -27 -20 -35 -20 -8 0 -24 -9 -35
-20 -11 -11 -28 -20 -39 -20 -10 0 -21 -9 -24 -20 -3 -12 -14 -20 -25 -20 -31
0 -52 -11 -52 -26 0 -8 -9 -14 -19 -14 -10 0 -21 -6 -24 -14 -3 -8 -22 -19
-41 -26 -20 -6 -36 -18 -36 -26 0 -8 -9 -14 -20 -14 -11 0 -20 -7 -20 -15 0
-9 -10 -19 -23 -24 -13 -5 -29 -16 -36 -25 -7 -9 -19 -16 -27 -16 -7 0 -19 -8
-26 -18 -7 -10 -21 -21 -30 -25 -10 -3 -18 -13 -18 -21 0 -7 -9 -16 -20 -19
-11 -3 -20 -12 -20 -21 0 -9 -8 -16 -20 -16 -13 0 -20 -7 -20 -20 0 -13 -7
-20 -20 -20 -13 0 -20 -7 -20 -20 0 -13 -7 -20 -20 -20 -13 0 -20 -7 -20 -20
0 -13 -7 -20 -20 -20 -13 0 -20 -7 -20 -20 0 -13 -7 -20 -20 -20 -13 0 -20 -7
-20 -20 0 -12 -7 -20 -16 -20 -9 0 -18 -9 -21 -20 -3 -11 -12 -20 -20 -20 -8
0 -17 -9 -20 -20 -3 -11 -11 -20 -19 -20 -13 0 -28 -22 -59 -87 -8 -18 -22
-33 -30 -33 -8 0 -15 -9 -15 -20 0 -11 -6 -20 -14 -20 -8 0 -20 -16 -26 -36
-7 -19 -18 -38 -26 -41 -8 -3 -14 -13 -14 -23 0 -10 -9 -20 -20 -23 -13 -3
-20 -14 -20 -31 0 -15 -8 -31 -20 -38 -11 -7 -20 -19 -20 -26 0 -8 -9 -25 -20
-39 -11 -14 -20 -32 -20 -39 0 -8 -9 -23 -20 -34 -11 -11 -20 -30 -20 -43 0
-12 -9 -28 -20 -35 -13 -8 -20 -23 -20 -42 0 -18 -6 -33 -15 -36 -8 -4 -18
-23 -21 -45 -4 -21 -15 -46 -25 -55 -12 -11 -19 -31 -19 -56 0 -26 -4 -38 -14
-38 -16 0 -26 -30 -26 -82 0 -26 -5 -38 -14 -38 -16 0 -26 -30 -26 -80 0 -19
-9 -46 -20 -60 -14 -18 -20 -41 -20 -80 0 -33 -8 -71 -20 -95 -14 -30 -19 -62
-20 -128 0 -64 -5 -97 -17 -120 -16 -28 -18 -65 -18 -322 0 -257 2 -293 18
-320 12 -22 17 -53 17 -115 0 -63 6 -96 20 -129 12 -25 20 -65 20 -96 0 -37 6
-60 20 -78 13 -17 20 -40 20 -71 0 -34 5 -51 20 -63 13 -12 20 -30 20 -54 0
-47 8 -69 26 -69 9 0 14 -12 14 -37 0 -22 9 -49 20 -63 11 -14 20 -35 20 -47
0 -13 9 -32 20 -43 11 -11 20 -33 20 -51 0 -22 5 -32 20 -36 15 -4 20 -14 20
-40 0 -26 5 -36 20 -40 14 -4 20 -14 20 -34 0 -18 8 -34 20 -41 11 -7 20 -20
20 -28 0 -9 9 -23 20 -33 11 -9 20 -26 20 -38 0 -12 8 -23 20 -26 11 -3 20
-13 20 -23 0 -9 9 -25 20 -35 11 -10 20 -27 20 -37 0 -11 9 -22 20 -25 11 -3
20 -14 20 -24 0 -11 7 -19 15 -19 8 0 22 -15 30 -32 32 -67 46 -88 61 -88 7 0
14 -7 14 -16 0 -9 9 -18 20 -21 11 -3 20 -13 20 -23 0 -10 9 -20 20 -23 11 -3
20 -12 20 -20 0 -8 9 -17 20 -20 11 -3 20 -12 20 -20 0 -8 9 -17 20 -20 11 -3
20 -12 20 -20 0 -8 9 -17 20 -20 11 -3 20 -12 20 -20 0 -8 9 -17 20 -20 11 -3
20 -12 20 -20 0 -8 9 -17 20 -20 11 -3 20 -12 20 -21 0 -9 8 -16 20 -16 13 0
20 -7 20 -20 0 -13 7 -20 20 -20 11 0 20 -7 20 -15 0 -9 10 -19 23 -24 13 -5
29 -16 36 -25 7 -9 20 -16 27 -16 8 0 19 -9 26 -20 7 -11 21 -20 30 -20 10 0
18 -7 18 -15 0 -9 8 -19 17 -22 10 -4 29 -15 42 -25 13 -10 32 -18 41 -18 10
0 20 -9 23 -20 3 -11 14 -20 25 -20 10 0 27 -9 37 -20 10 -11 25 -20 34 -20 9
0 24 -9 34 -20 9 -11 28 -20 41 -20 15 0 26 -7 29 -20 4 -15 14 -20 40 -20 26
0 36 -5 40 -20 4 -15 14 -20 41 -20 24 0 36 -5 36 -14 0 -15 21 -26 52 -26 11
0 31 -9 45 -20 14 -11 41 -20 59 -20 23 0 37 -6 44 -20 8 -15 21 -20 55 -20
33 0 50 -6 62 -20 13 -15 30 -20 67 -20 34 0 52 -5 61 -17 9 -11 32 -18 76
-21 36 -3 76 -12 93 -23 23 -14 51 -19 111 -19 51 0 103 -7 143 -20 57 -18 92
-20 335 -20 243 1 278 3 327 20 38 13 82 19 141 20 71 0 91 4 112 20 19 15 40
20 85 20 44 0 66 5 85 20 16 13 40 20 67 20 27 0 51 7 67 20 16 12 41 20 64
20 28 0 41 5 49 20 7 14 21 20 44 20 18 0 45 9 59 20 14 11 39 20 57 20 23 0
33 5 37 20 4 15 14 20 40 20 26 0 36 5 40 20 4 15 14 20 40 20 26 0 36 5 40
20 3 13 14 20 29 20 13 0 33 9 44 20 11 11 26 20 33 20 8 0 22 9 32 20 10 11
29 20 42 20 16 0 23 6 23 20 0 13 7 20 19 20 10 0 29 8 42 18 13 10 32 21 42
25 9 3 17 13 17 22 0 8 9 15 19 15 10 0 22 7 25 15 3 9 19 21 36 26 16 6 30
15 30 20 0 5 11 14 25 19 14 5 25 16 25 25 0 8 9 15 20 15 13 0 20 7 20 20 0
13 7 20 20 20 12 0 20 7 20 16 0 9 9 18 20 21 11 3 20 12 20 20 0 8 9 17 20
20 11 3 20 12 20 20 0 8 9 17 20 20 11 3 20 12 20 20 0 8 9 17 20 20 11 3 20
12 20 20 0 8 9 17 20 20 11 3 20 12 20 20 0 8 9 17 20 20 11 3 20 14 20 24 0
12 7 19 20 19 13 0 20 7 20 20 0 11 7 20 15 20 9 0 20 11 25 25 5 14 14 25 19
25 5 0 14 14 20 30 5 17 17 33 26 36 8 3 15 15 15 25 0 10 7 19 15 19 9 0 19
8 22 18 4 9 15 28 25 41 10 13 18 32 18 42 0 12 7 19 20 19 14 0 20 7 20 23 0
13 9 32 20 42 11 10 20 24 20 32 0 7 9 22 20 33 11 11 20 31 20 44 0 15 7 26
20 29 15 4 20 14 20 40 0 26 5 36 20 40 15 4 20 14 20 41 0 24 5 36 14 36 15
0 26 21 26 52 0 11 9 31 20 45 11 14 20 41 20 59 0 23 6 37 20 44 15 8 20 21
20 49 0 23 8 48 20 64 13 16 20 40 20 67 0 27 7 51 20 67 14 18 20 41 20 79 0
36 7 64 20 86 16 26 20 51 20 116 0 57 6 102 21 144 19 57 20 79 17 347 -3
244 -6 291 -21 323 -12 26 -17 63 -17 120 0 63 -4 90 -19 114 -11 19 -20 56
-23 98 -3 49 -9 72 -21 81 -12 9 -17 27 -17 61 0 37 -5 54 -20 67 -14 12 -20
29 -20 62 0 34 -5 47 -20 55 -14 7 -20 21 -20 44 0 18 -9 45 -20 59 -11 14
-20 35 -20 46 0 12 -9 30 -20 41 -11 11 -20 33 -20 51 0 22 -5 32 -20 36 -13
3 -20 14 -20 28 0 34 -10 55 -26 55 -8 0 -14 10 -14 25 0 14 -9 33 -20 42 -11
10 -20 24 -20 33 0 9 -9 23 -20 33 -11 9 -20 26 -20 38 0 12 -8 23 -20 26 -11
3 -20 13 -20 23 0 9 -9 25 -20 35 -11 10 -20 27 -20 37 0 11 -9 22 -20 25 -11
3 -20 13 -20 23 0 10 -9 20 -20 23 -11 3 -20 14 -20 25 0 11 -7 26 -16 33 -9
7 -20 23 -25 36 -5 13 -15 23 -23 23 -7 0 -16 9 -19 20 -3 11 -12 20 -21 20
-9 0 -16 8 -16 20 0 13 -7 20 -20 20 -13 0 -20 7 -20 20 0 12 -7 20 -16 20 -9
0 -18 9 -21 20 -3 11 -12 20 -20 20 -8 0 -17 9 -20 20 -3 11 -12 20 -20 20 -8
0 -17 9 -20 20 -3 11 -12 20 -20 20 -8 0 -17 9 -20 20 -3 11 -12 20 -20 20 -8
0 -17 9 -20 20 -3 11 -13 20 -23 20 -10 0 -20 9 -23 20 -3 11 -12 20 -20 20
-8 0 -17 9 -20 20 -3 12 -14 20 -26 20 -12 0 -21 5 -21 11 0 5 -16 17 -35 25
-19 8 -35 21 -35 29 0 8 -8 15 -19 15 -10 0 -21 9 -24 20 -3 11 -14 20 -25 20
-10 0 -27 9 -37 20 -10 11 -26 20 -35 20 -10 0 -20 9 -23 20 -3 13 -14 20 -31
20 -15 0 -31 8 -38 20 -7 11 -19 20 -26 20 -8 0 -25 9 -39 20 -14 11 -34 20
-44 20 -11 0 -19 6 -19 14 0 16 -21 26 -56 26 -14 0 -24 6 -24 14 0 16 -21 26
-55 26 -12 0 -25 7 -29 15 -3 8 -23 18 -45 21 -22 4 -48 15 -57 25 -11 12 -31
19 -56 19 -26 0 -38 4 -38 14 0 16 -30 26 -82 26 -26 0 -38 5 -38 14 0 16 -30
26 -80 26 -19 0 -46 9 -60 20 -18 14 -41 20 -85 20 -41 0 -69 6 -85 17 -18 13
-50 18 -120 21 -57 2 -111 10 -135 20 -33 13 -85 16 -280 18 -132 0 -265 -1
-295 -3z m240 -273 c80 -1 150 -5 155 -9 6 -3 19 -7 30 -7 11 -1 54 -9 95 -18
81 -18 142 -27 178 -28 12 0 22 -4 22 -8 0 -5 18 -11 40 -15 22 -4 47 -13 54
-21 8 -8 26 -14 40 -14 14 0 26 -4 26 -10 0 -5 8 -10 18 -10 10 0 24 -9 32
-20 8 -11 22 -20 32 -20 10 0 18 -4 18 -9 0 -5 18 -12 39 -16 22 -4 50 -15 62
-26 12 -10 28 -19 36 -19 7 0 16 -7 19 -15 4 -8 13 -15 20 -15 8 0 30 -15 48
-34 19 -18 55 -42 80 -52 26 -11 49 -28 52 -39 4 -11 15 -26 25 -33 11 -7 19
-20 19 -28 0 -8 8 -14 18 -14 10 0 24 -9 32 -20 11 -15 26 -20 60 -20 25 0 52
-5 60 -10 11 -7 3 -10 -30 -10 -55 0 -121 -17 -135 -34 -6 -7 -36 -16 -68 -20
-39 -5 -57 -12 -57 -21 0 -10 -17 -17 -50 -21 -29 -4 -56 -14 -66 -25 -9 -11
-30 -19 -46 -19 -17 0 -41 -9 -55 -20 -14 -11 -38 -20 -54 -20 -16 0 -36 -8
-46 -19 -10 -10 -33 -22 -50 -26 -18 -3 -33 -12 -33 -20 0 -7 -16 -16 -36 -19
-19 -4 -38 -14 -41 -22 -3 -7 -13 -14 -22 -14 -9 0 -24 -9 -34 -20 -9 -11 -26
-20 -38 -20 -12 0 -23 -8 -26 -20 -3 -11 -12 -20 -20 -20 -7 0 -25 -11 -39
-25 -14 -14 -30 -25 -36 -25 -14 0 -173 -160 -181 -182 -3 -10 -13 -18 -22
-18 -8 0 -15 -9 -15 -20 0 -13 -7 -20 -20 -20 -12 0 -20 -7 -20 -16 0 -9 -9
-18 -20 -21 -14 -4 -20 -14 -20 -34 0 -18 -7 -32 -20 -39 -10 -6 -22 -26 -26
-45 -3 -19 -12 -35 -19 -35 -8 0 -17 -15 -20 -32 -4 -18 -16 -41 -26 -51 -11
-10 -19 -29 -19 -43 0 -14 -9 -37 -20 -51 -15 -19 -20 -41 -20 -84 0 -50 -4
-63 -28 -90 -23 -26 -32 -30 -48 -22 -10 6 -138 13 -283 17 -202 5 -268 10
-280 20 -19 16 -143 15 -163 -1 -13 -11 -232 -24 -255 -16 -16 6 -17 70 -2 75
6 2 14 36 18 75 4 39 12 78 19 86 8 9 18 46 23 82 5 37 16 73 24 81 8 9 15 33
15 56 0 25 8 49 20 65 11 15 20 41 20 61 0 20 7 43 16 53 9 10 20 40 25 66 5
26 14 49 19 51 5 2 12 20 16 40 4 20 15 48 25 61 11 13 19 34 19 46 0 12 9 34
20 48 11 14 20 37 20 51 0 15 6 29 14 32 8 3 18 20 22 37 3 18 15 40 25 50 11
10 19 29 19 43 0 13 7 27 15 30 8 3 19 23 25 44 6 21 17 41 25 44 8 3 15 15
15 26 0 11 9 29 20 40 11 11 20 26 20 33 0 7 9 20 20 30 11 9 20 26 20 37 0
10 9 24 20 30 11 6 20 17 20 24 0 7 9 21 20 31 11 10 20 27 20 37 0 11 9 22
20 25 11 3 20 11 20 19 0 7 11 24 25 38 14 14 25 32 25 41 0 8 4 15 10 15 5 0
19 10 30 23 19 19 34 23 128 27 59 3 123 4 142 4 19 -1 100 -3 180 -4z m-720
-55 c0 -8 -4 -15 -10 -15 -5 0 -10 7 -10 15 0 8 5 15 10 15 6 0 10 -7 10 -15z
m-30 -60 c0 -19 -5 -35 -10 -35 -6 0 -14 -8 -17 -17 -4 -10 -15 -29 -25 -42
-10 -13 -18 -33 -18 -45 0 -12 -9 -29 -20 -39 -11 -9 -20 -27 -20 -40 0 -12
-9 -30 -20 -40 -11 -9 -20 -26 -20 -37 0 -11 -9 -29 -20 -40 -11 -11 -20 -31
-20 -43 0 -13 -9 -32 -20 -42 -11 -10 -20 -28 -20 -40 0 -12 -9 -34 -20 -48
-11 -14 -20 -33 -20 -44 0 -10 -9 -31 -20 -48 -11 -16 -20 -38 -20 -48 0 -11
-9 -30 -20 -44 -11 -14 -20 -36 -20 -48 0 -12 -9 -34 -20 -48 -11 -14 -20 -37
-20 -52 0 -15 -9 -38 -20 -52 -11 -14 -20 -41 -20 -59 0 -18 -7 -40 -16 -48
-8 -9 -19 -39 -23 -67 -5 -28 -14 -55 -21 -59 -7 -4 -15 -32 -18 -61 -2 -30
-11 -62 -20 -72 -9 -10 -19 -45 -23 -79 -4 -33 -13 -64 -19 -68 -7 -4 -16 -39
-19 -76 -4 -38 -15 -83 -24 -101 -9 -18 -17 -39 -17 -48 0 -8 -8 -15 -17 -15
-10 0 -31 -7 -48 -16 -18 -10 -63 -19 -115 -21 -55 -3 -100 -12 -126 -24 -25
-12 -62 -19 -96 -19 -37 0 -62 -5 -72 -15 -8 -8 -28 -15 -44 -15 -39 0 -42 13
-42 176 0 95 -4 144 -16 175 -9 24 -18 85 -21 134 -3 50 -12 105 -21 125 -8
19 -17 71 -19 115 -3 44 -11 97 -19 118 -22 59 -18 88 21 131 19 22 35 43 35
48 0 4 6 8 14 8 8 0 18 9 21 20 3 11 13 20 21 20 8 0 18 8 21 17 7 17 169 183
180 183 3 0 20 15 38 34 17 18 46 41 63 50 18 9 32 21 32 26 0 6 7 10 15 10 8
0 20 9 27 20 7 11 16 20 20 20 5 0 17 9 28 20 11 11 29 20 40 20 11 0 25 9 32
20 7 11 20 20 30 20 9 0 18 4 20 8 2 5 40 27 84 50 45 22 98 52 119 66 20 14
63 33 96 43 32 10 59 21 59 25 0 4 11 8 25 8 27 0 75 19 75 30 0 4 22 10 50
14 27 4 55 13 62 21 7 8 23 14 36 15 19 0 22 -5 22 -35z m2139 -621 c35 -7 40
-19 11 -27 -30 -8 -25 -45 13 -80 20 -19 27 -32 20 -34 -22 -8 -15 -43 7 -43
13 0 20 -7 20 -19 0 -10 9 -21 20 -24 15 -4 20 -14 21 -44 1 -21 1 -44 0 -51
-1 -8 7 -16 18 -19 24 -6 26 -30 22 -187 -2 -72 -7 -93 -22 -110 -11 -11 -15
-22 -9 -24 13 -5 13 -42 0 -42 -5 0 -10 -18 -10 -40 0 -22 -4 -40 -10 -40 -5
0 -10 -18 -10 -40 0 -22 -4 -40 -10 -40 -5 0 -10 5 -10 10 0 6 -4 10 -10 10
-15 0 -12 -57 3 -64 10 -5 10 -7 0 -12 -7 -3 -13 -16 -13 -29 0 -15 -7 -26
-20 -30 -11 -3 -20 -10 -20 -16 0 -5 -8 -18 -17 -29 -13 -15 -19 -17 -26 -7
-7 9 -10 9 -14 0 -2 -7 -13 -13 -24 -13 -10 0 -19 -4 -19 -10 0 -5 5 -10 10
-10 6 0 10 -9 10 -20 0 -11 -4 -20 -10 -20 -5 0 -10 -9 -10 -20 0 -13 -7 -20
-20 -20 -13 0 -20 -7 -20 -20 0 -13 -7 -20 -20 -20 -11 0 -20 -7 -20 -15 0 -9
-8 -19 -17 -22 -29 -11 -50 -36 -35 -41 6 -2 12 -12 12 -23 0 -10 5 -19 10
-19 6 0 10 -4 10 -10 0 -17 -77 -12 -84 5 -4 11 -20 15 -57 15 -34 0 -59 6
-70 16 -9 8 -42 18 -73 21 -34 4 -56 11 -56 18 0 7 -21 14 -54 18 -30 3 -70
12 -88 20 -18 9 -63 17 -99 20 -37 2 -82 12 -100 21 -19 10 -57 16 -96 16 -44
0 -76 6 -103 20 -27 14 -59 20 -105 20 -40 0 -88 8 -122 20 -32 11 -70 20 -85
20 -27 0 -28 2 -28 48 0 28 8 64 20 87 13 25 20 59 20 92 0 38 4 53 14 53 8 0
16 15 19 36 7 44 45 124 62 130 7 3 16 21 19 40 4 20 13 34 21 34 8 0 15 7 15
15 0 9 7 18 16 22 8 3 20 16 25 29 4 13 15 24 24 24 8 0 15 6 15 13 0 8 11 19
25 25 14 6 25 16 25 22 0 5 7 10 16 10 9 0 18 9 21 19 3 13 17 22 44 26 24 4
39 12 39 21 0 8 7 14 15 14 8 0 19 9 25 20 7 13 21 20 40 20 19 0 33 7 40 20
7 13 21 20 38 20 15 0 35 9 45 20 9 11 29 20 44 20 14 0 34 7 44 16 10 9 37
20 61 25 23 6 45 14 49 20 3 5 30 12 60 16 30 3 70 14 89 25 20 10 55 18 82
18 34 0 48 4 48 14 0 10 25 16 99 21 71 5 101 11 105 21 6 15 35 18 85 8z
m-3573 -475 c4 -28 13 -57 21 -65 9 -8 17 -41 20 -77 2 -34 12 -80 20 -102 11
-26 19 -95 24 -200 4 -88 11 -181 14 -207 7 -45 6 -47 -19 -54 -14 -3 -30 -12
-34 -20 -4 -8 -31 -18 -60 -24 -29 -5 -60 -17 -68 -25 -9 -8 -27 -15 -42 -15
-15 0 -38 -9 -52 -20 -14 -11 -35 -20 -46 -20 -12 0 -33 -9 -47 -20 -14 -11
-40 -20 -57 -20 l-32 0 7 48 c4 26 10 54 15 62 4 8 10 41 14 73 3 32 13 69 22
82 8 13 18 49 21 79 4 36 10 56 19 56 7 0 15 14 18 30 3 17 9 44 12 60 3 17 9
30 14 30 4 0 11 18 15 39 4 22 12 42 20 45 7 2 16 20 20 38 4 18 16 44 26 57
11 13 19 30 19 38 0 8 9 26 20 40 11 14 20 34 20 43 0 10 6 20 14 23 8 3 17
21 21 39 14 66 31 61 41 -13z m2324 -19 c0 -5 -4 -10 -10 -10 -5 0 -10 5 -10
10 0 6 5 10 10 10 6 0 10 -4 10 -10z m-915 -680 c11 -5 143 -11 293 -12 258
-3 274 -4 288 -22 10 -15 14 -54 14 -151 0 -93 4 -141 14 -161 8 -16 17 -65
21 -108 4 -44 13 -89 20 -100 7 -12 15 -46 19 -75 3 -34 11 -58 21 -63 10 -6
15 -25 15 -62 0 -45 3 -54 20 -59 16 -4 20 -14 20 -50 0 -31 5 -47 15 -51 13
-5 23 -66 11 -66 -16 0 -36 15 -36 27 0 17 -24 43 -40 43 -17 0 -40 -26 -40
-44 0 -9 -4 -16 -10 -16 -5 0 -10 5 -10 10 0 6 -4 10 -10 10 -5 0 -10 -9 -10
-21 0 -16 -4 -19 -20 -14 -14 5 -20 2 -20 -9 0 -9 5 -16 10 -16 6 0 10 -4 10
-10 0 -5 -9 -10 -20 -10 -11 0 -20 -4 -20 -10 0 -5 -9 -10 -20 -10 -11 0 -20
5 -20 10 0 15 -21 12 -39 -5 -9 -8 -32 -30 -53 -49 -21 -20 -51 -38 -72 -41
-20 -4 -36 -12 -36 -17 0 -17 -28 -38 -44 -32 -11 4 -16 1 -16 -10 0 -9 5 -16
10 -16 6 0 10 -9 10 -20 0 -15 -7 -20 -26 -20 -15 0 -34 -8 -43 -18 -9 -11
-28 -22 -43 -26 -16 -3 -28 -13 -28 -21 0 -8 -4 -15 -10 -15 -5 0 -10 -7 -10
-16 0 -22 -26 -45 -43 -38 -8 3 -21 -1 -28 -8 -8 -8 -22 -17 -31 -21 -10 -3
-18 -13 -18 -22 0 -8 -9 -15 -20 -15 -13 0 -20 -7 -20 -19 0 -13 -10 -21 -34
-25 -30 -6 -60 -36 -36 -36 6 0 10 -5 10 -11 0 -6 -8 -8 -18 -5 -12 4 -26 -2
-39 -16 -37 -42 -73 -68 -86 -62 -21 8 -77 -50 -77 -80 0 -14 -4 -26 -10 -26
-5 0 -10 -9 -10 -20 0 -13 -7 -20 -20 -20 -16 0 -20 -7 -20 -38 0 -37 -22 -83
-35 -71 -3 4 -8 53 -12 110 -4 78 -9 107 -21 117 -13 9 -18 45 -24 164 -6 108
-14 162 -26 187 -15 32 -17 82 -17 491 0 410 2 459 18 498 12 31 17 70 17 147
0 57 4 115 10 129 l10 26 150 0 c87 0 150 4 150 9 0 19 122 20 165 1z m-648
-132 c-3 -69 -12 -131 -23 -158 -15 -41 -17 -104 -18 -635 0 -541 1 -592 17
-620 13 -24 17 -55 17 -145 0 -82 4 -123 15 -144 17 -32 21 -151 5 -141 -5 3
-10 15 -10 26 0 12 -7 19 -20 19 -11 0 -20 6 -20 14 0 7 -12 16 -27 19 -21 4
-33 -2 -54 -24 -15 -16 -32 -29 -39 -29 -16 0 -40 -26 -40 -44 0 -9 5 -16 11
-16 7 0 9 -11 6 -28 -7 -35 4 -55 26 -46 12 4 17 1 17 -14 0 -11 7 -22 15 -26
8 -3 15 -15 15 -26 0 -11 7 -20 15 -20 8 0 15 -7 15 -15 0 -8 4 -15 9 -15 11
0 67 -55 100 -99 13 -17 29 -31 35 -31 6 0 17 -9 24 -20 7 -11 21 -20 31 -20
16 0 22 -11 31 -56 6 -30 18 -58 25 -60 7 -3 16 -23 20 -44 4 -21 13 -44 20
-50 7 -6 16 -33 20 -61 4 -29 12 -49 20 -49 14 0 28 -100 15 -113 -4 -5 -15 0
-25 10 -10 9 -27 22 -39 28 -40 21 -71 38 -86 47 -8 5 -30 15 -47 23 -18 9
-33 20 -33 25 0 6 -8 14 -17 17 -10 4 -29 15 -42 25 -13 10 -32 18 -41 18 -10
0 -20 9 -23 20 -3 11 -13 20 -24 20 -10 0 -37 18 -61 40 -24 22 -47 40 -52 40
-5 0 -36 27 -68 60 -33 33 -65 60 -71 60 -6 0 -11 7 -11 15 0 8 -7 15 -15 15
-9 0 -18 7 -22 16 -7 18 -50 64 -60 64 -9 0 -63 52 -63 61 0 4 -25 32 -55 63
-30 30 -55 60 -55 65 0 6 -9 15 -20 21 -11 6 -20 17 -20 25 0 12 -20 40 -62
86 -10 10 -18 24 -18 29 0 6 -7 13 -15 16 -8 3 -17 16 -21 27 -4 12 -22 40
-40 63 -29 35 -34 49 -34 92 0 32 5 54 14 59 7 4 16 32 19 61 3 29 13 62 22
74 8 13 15 34 15 48 0 14 8 42 19 63 10 20 22 53 26 74 4 20 13 46 21 57 8 11
14 36 14 56 0 19 8 49 18 65 10 17 21 54 25 84 3 29 13 58 20 65 8 6 17 37 20
70 3 32 12 65 20 75 8 9 17 46 20 84 3 39 11 75 20 85 9 11 17 49 20 106 4 56
11 92 19 97 9 6 14 55 18 178 3 93 7 171 10 173 41 29 95 48 136 48 27 0 63 7
79 16 18 10 69 19 133 23 56 4 108 13 114 19 7 7 21 12 31 12 19 0 20 -6 14
-112z m1505 66 c17 -9 71 -20 121 -24 53 -5 93 -14 98 -21 4 -7 39 -16 78 -20
38 -4 80 -14 93 -22 13 -8 49 -17 81 -20 32 -3 68 -12 80 -20 13 -8 41 -18 64
-22 23 -3 52 -15 64 -26 13 -11 37 -19 58 -19 24 0 42 -7 54 -20 9 -11 25 -21
34 -21 10 -1 25 -3 33 -4 8 -1 21 -3 28 -4 6 0 12 -8 12 -16 0 -11 -11 -15
-39 -15 -22 0 -46 -7 -55 -15 -9 -9 -33 -15 -60 -15 -39 0 -46 -3 -46 -20 0
-13 -7 -20 -20 -20 -16 0 -20 -7 -20 -30 0 -23 -4 -30 -20 -30 -11 0 -20 -4
-20 -10 0 -5 -8 -10 -19 -10 -10 0 -29 -13 -42 -30 -15 -18 -33 -30 -47 -30
-14 0 -36 -13 -52 -30 -15 -16 -38 -30 -50 -30 -13 0 -31 -10 -42 -22 -16 -19
-21 -20 -28 -8 -5 8 -12 11 -17 7 -4 -5 -1 -12 6 -17 11 -6 8 -13 -12 -34 -20
-20 -36 -26 -72 -26 -38 0 -45 -3 -45 -20 0 -12 -7 -20 -16 -20 -19 0 -44 -24
-44 -43 0 -22 -11 -27 -34 -14 -11 7 -23 13 -25 14 -2 1 -7 23 -12 49 -5 26
-15 52 -23 58 -7 6 -16 31 -19 55 -3 25 -12 48 -20 53 -9 4 -18 32 -22 65 -4
31 -13 62 -21 68 -8 6 -16 41 -20 95 -3 47 -12 99 -19 115 -15 35 -29 160 -20
175 9 15 62 12 97 -6z m1188 -114 c12 -8 11 -10 -7 -10 -13 0 -23 5 -23 10 0
13 11 13 30 0z m-3376 -146 c-1 -109 -4 -145 -17 -169 -9 -16 -17 -50 -17 -75
0 -51 -17 -120 -29 -120 -5 0 -11 -27 -14 -60 -3 -34 -11 -68 -18 -76 -7 -8
-16 -38 -20 -66 -5 -28 -15 -58 -22 -67 -8 -9 -17 -38 -20 -65 -3 -28 -11 -55
-19 -60 -8 -6 -17 -33 -20 -60 -3 -28 -12 -55 -20 -60 -8 -6 -18 -33 -21 -61
-4 -27 -13 -54 -21 -60 -7 -5 -17 -32 -22 -59 -7 -36 -15 -51 -30 -57 -19 -7
-22 -2 -34 49 -6 32 -17 68 -22 82 -6 14 -14 34 -19 45 -4 11 -10 38 -13 60
-8 65 -18 110 -26 115 -5 3 -11 70 -14 150 -4 80 -11 174 -16 210 -5 36 -12
110 -14 165 -5 97 -4 101 21 127 15 16 33 28 40 28 7 0 13 7 13 15 0 9 11 20
25 25 14 5 25 14 25 19 0 6 16 13 35 17 19 3 35 12 35 19 0 8 15 17 33 20 17
4 40 16 50 26 10 11 29 19 43 19 13 0 27 7 30 15 4 8 23 18 44 21 22 4 41 13
44 21 3 8 12 13 19 10 9 -3 12 -40 11 -143z m3196 -34 c0 -12 -8 -12 -35 0
-18 8 -17 9 8 9 15 1 27 -3 27 -9z m-770 -380 c0 -5 -4 -10 -10 -10 -5 0 -10
5 -10 10 0 6 5 10 10 10 6 0 10 -4 10 -10z m-100 -120 c0 -11 -4 -20 -10 -20
-5 0 -10 9 -10 20 0 11 5 20 10 20 6 0 10 -9 10 -20z m-300 -80 c0 -5 -4 -10
-10 -10 -5 0 -10 5 -10 10 0 6 5 10 10 10 6 0 10 -4 10 -10z m120 -95 c0 -8
-4 -15 -10 -15 -5 0 -10 7 -10 15 0 8 5 15 10 15 6 0 10 -7 10 -15z m-1404
-1052 c-10 -10 -19 5 -10 18 6 11 8 11 12 0 2 -7 1 -15 -2 -18z m442 -563 c6
0 16 -9 22 -20 6 -11 19 -20 29 -20 10 0 30 -9 44 -20 14 -11 37 -20 51 -20
14 0 35 -9 46 -20 11 -11 27 -20 35 -20 8 0 29 -8 48 -19 18 -10 48 -22 65
-26 18 -3 32 -11 32 -15 0 -5 19 -14 43 -21 23 -6 47 -15 52 -19 6 -5 33 -14
60 -20 26 -6 53 -17 59 -24 6 -8 33 -16 60 -20 28 -3 52 -10 55 -15 4 -5 15
-10 26 -12 14 -3 20 -12 20 -29 l0 -25 -129 2 c-86 1 -160 9 -220 22 -50 11
-129 28 -176 37 -141 27 -148 31 -156 70 -3 19 -12 34 -19 34 -7 0 -16 15 -19
34 -4 19 -13 36 -20 39 -8 3 -17 24 -21 46 -4 25 -12 41 -21 41 -9 0 -14 11
-14 28 0 36 11 48 26 28 6 -9 16 -16 22 -16z m902 -340 c0 -17 -7 -20 -40 -20
-44 0 -58 25 -17 33 48 9 57 7 57 -13z"/>
<path d="M1720 2690 c0 -5 5 -10 10 -10 6 0 10 5 10 10 0 6 -4 10 -10 10 -5 0
-10 -4 -10 -10z"/>
<path d="M3680 3930 c0 -5 5 -10 10 -10 6 0 10 5 10 10 0 6 -4 10 -10 10 -5 0
-10 -4 -10 -10z"/>
<path d="M3560 3890 c0 -5 5 -10 10 -10 6 0 10 5 10 10 0 6 -4 10 -10 10 -5 0
-10 -4 -10 -10z"/>
</g>
</svg>
