<svg height="794pt" viewBox="0 0 1138 794" width="1138pt" xmlns="http://www.w3.org/2000/svg"><path d="M899.5 55.6C851.1 79 632.6 184.3 414 289.7S16.3 481.5 16.1 481.6c-.6.5 2.1 6.4 19.4 42.2 12.9 27 16.2 33.1 17.6 32.7 1.4-.5 924.4-445.4 959.7-462.6 6.7-3.3 12.2-6.5 12.2-7 0-2.2-35-73.4-36.2-73.6-.7-.1-40.9 18.9-89.3 42.3zM938 165.3c-54.7 26.5-273.2 131.9-485.5 234.3C131 554.6 66.6 586 66.8 587.5c.6 2.9 34.6 73.4 35.5 73.5.7 0 946.9-456.1 965.4-465.4l8.2-4.1-17.8-37c-9.9-20.6-18.4-37.1-19.2-37.2s-46.2 21.5-100.9 48zM1006.5 261.6C961.4 283.4 742.9 388.7 521 495.7S117.3 690.4 117.1 690.6s.2 1.8.9 3.6c1.6 4 33.8 71 34.4 71.6.3.2 80.5-38.2 178.3-85.3 801.4-386.5 793.9-382.9 795.2-384.1.8-.7-35.2-74.4-36.3-74.4-.6 0-38 17.8-83.1 39.6z"/></svg>